<?xml version="1.0" encoding="UTF-8" standalone="no"?>
<!-- Created with Inkscape (http://www.inkscape.org/) -->

<svg
   width="45.688999mm"
   height="36.790001mm"
   viewBox="0 0 45.688999 36.790001"
   version="1.1"
   id="svg5"
   inkscape:version="1.1.1 (3bf5ae0d25, 2021-09-20)"
   sodipodi:docname="logo.svg"
   xmlns:inkscape="http://www.inkscape.org/namespaces/inkscape"
   xmlns:sodipodi="http://sodipodi.sourceforge.net/DTD/sodipodi-0.dtd"
   xmlns="http://www.w3.org/2000/svg"
   xmlns:svg="http://www.w3.org/2000/svg">
  <sodipodi:namedview
     id="namedview7"
     pagecolor="#505050"
     bordercolor="#ffffff"
     borderopacity="1"
     inkscape:pageshadow="0"
     inkscape:pageopacity="0"
     inkscape:pagecheckerboard="1"
     inkscape:document-units="mm"
     showgrid="false"
     showguides="true"
     inkscape:guide-bbox="true"
     inkscape:snap-bbox="true"
     inkscape:bbox-paths="true"
     inkscape:snap-bbox-edge-midpoints="true"
     inkscape:bbox-nodes="true"
     inkscape:snap-bbox-midpoints="true"
     inkscape:object-paths="true"
     inkscape:snap-intersection-paths="true"
     inkscape:snap-smooth-nodes="true"
     inkscape:snap-midpoints="true"
     inkscape:snap-object-midpoints="true"
     inkscape:snap-center="true"
     inkscape:snap-text-baseline="true"
     inkscape:snap-page="true"
     inkscape:zoom="1.5554293"
     inkscape:cx="64.290933"
     inkscape:cy="74.577482"
     inkscape:window-width="1279"
     inkscape:window-height="1368"
     inkscape:window-x="1272"
     inkscape:window-y="0"
     inkscape:window-maximized="0"
     inkscape:current-layer="layer1" />
  <defs
     id="defs2" />
  <g
     inkscape:label="Lag 1"
     inkscape:groupmode="layer"
     id="layer1">
    <g
       id="g29183"
       transform="rotate(-19.421456,-576.488,163.67628)">
      <path
         style="opacity:1;fill:#ffcc00;fill-opacity:1;stroke:none;stroke-width:1.71819;stroke-linejoin:round;stroke-miterlimit:4;stroke-dasharray:none;stroke-opacity:1"
         d="m 120.20948,879.40387 -0.94289,-0.4912 0.0903,-6.27407 c 0.0496,-3.45075 0.1998,-8.72895 0.33367,-11.72935 0.13388,-3.00039 0.28902,-7.96128 0.34476,-11.02418 0.0988,-5.42732 0.1318,-6.60489 0.42406,-15.11564 0.2683,-7.81293 0.32963,-8.87108 0.58181,-10.0371 0.2916,-1.3483 0.3888,-1.39778 2.83887,-1.44531 3.40695,-0.0661 4.64452,0.007 4.87014,0.28775 0.1256,0.15627 0.53878,0.65563 0.91818,1.1097 0.37939,0.45406 0.68981,0.92209 0.68981,1.04006 0,0.11798 0.25572,0.45473 0.56826,0.74835 0.31254,0.29362 0.56825,0.63148 0.56825,0.75081 0,0.11932 0.33243,0.61065 0.73874,1.09183 1.47794,1.75033 1.9889,2.42921 1.9889,2.64256 0,0.11974 0.20457,0.40284 0.4546,0.62911 0.25004,0.22628 0.45461,0.53504 0.45461,0.68615 0,0.1511 0.2352,0.51882 0.52267,0.81715 0.28746,0.29834 0.91878,1.15615 1.40293,1.90625 0.48414,0.75009 1.29737,1.86876 1.80718,2.48591 0.94061,1.13867 1.02927,1.265 1.83614,2.61618 0.25003,0.41871 0.73589,1.09211 1.07968,1.49645 0.3438,0.40434 0.62509,0.81044 0.62509,0.90245 0,0.14593 0.71923,1.07275 1.67571,2.15937 0.16507,0.18753 0.7735,1.05696 1.35206,1.93208 0.57857,0.87511 1.52231,2.25598 2.09721,3.06858 1.62712,2.29992 2.22551,3.17511 2.71696,3.97378 0.25004,0.40633 1.22343,1.74976 2.16311,2.98539 0.93968,1.23563 2.09414,2.80917 2.56547,3.49676 1.69355,2.47057 2.79842,4.02127 3.41174,4.78842 l 0.62398,0.7805 0.39895,-0.47599 c 0.34813,-0.41536 0.4072,-1.09447 0.46381,-5.33203 0.0357,-2.67082 0.11317,-4.93418 0.1722,-5.02969 0.059,-0.0955 0.14599,-2.29899 0.19325,-4.8966 0.2833,-15.57079 0.39119,-19.47973 0.58834,-21.31604 0.1208,-1.12515 0.20413,-2.40373 0.18517,-2.84129 -0.0514,-1.18647 0.23695,-2.21528 0.66984,-2.38993 0.86583,-0.34933 3.91681,-0.30352 5.10006,0.0766 1.11456,0.35803 1.19707,0.43673 1.35297,1.29049 0.16005,0.87642 0.0614,10.49503 -0.17011,16.5931 -0.10829,2.85203 -0.19647,6.38614 -0.4367,17.50232 -0.29204,13.51377 -0.48094,17.84274 -0.77861,17.84372 -0.0757,2.2e-4 -0.16061,0.32613 -0.18866,0.72419 -0.028,0.39806 -0.20512,1.04855 -0.3935,1.44554 -0.29143,0.61412 -0.49944,0.74329 -1.39453,0.86598 -1.21573,0.16664 -3.48928,-0.0432 -3.89042,-0.35908 -0.15079,-0.11874 -0.35874,-0.16362 -0.46211,-0.0997 -0.28225,0.17443 -2.56788,-2.30893 -3.42678,-3.72324 -0.41444,-0.68244 -1.10447,-1.70108 -1.5334,-2.26366 -0.42892,-0.56257 -0.8719,-1.23163 -0.98439,-1.48681 -0.11249,-0.25517 -0.37135,-0.6024 -0.57525,-0.77162 -0.37408,-0.31046 -1.49442,-1.88446 -1.79006,-2.51493 -0.0879,-0.18752 -0.61685,-0.95467 -1.17535,-1.70477 -0.55851,-0.7501 -1.51134,-2.07982 -2.11739,-2.95493 -2.33908,-3.37755 -3.13928,-4.51486 -3.73721,-5.31163 -0.34074,-0.45405 -1.21017,-1.73497 -1.93207,-2.84649 -0.7219,-1.11152 -1.83875,-2.65557 -2.48187,-3.43121 -0.64313,-0.77565 -1.35913,-1.74631 -1.59112,-2.15702 -0.81592,-1.4445 -0.93104,-1.61812 -1.41304,-2.13119 -0.26743,-0.28466 -0.48623,-0.59205 -0.48623,-0.68309 0,-0.15204 -0.74349,-1.16368 -2.6699,-3.63282 -0.40581,-0.52014 -0.83027,-1.15552 -0.94324,-1.41195 -0.27789,-0.63081 -1.58821,-2.55907 -1.84814,-2.71971 -0.11501,-0.0711 -0.37507,-0.47897 -0.5779,-0.90639 -0.55106,-1.16127 -2.53612,-3.22082 -2.82546,-2.93148 -0.24662,0.24662 -0.40455,3.16612 -0.56438,10.43336 -0.087,3.95302 -0.17953,6.63739 -0.47039,13.63817 -0.0972,2.33901 -0.26531,8.83902 -0.41627,16.09289 -0.0506,2.43096 -0.1426,3.21396 -0.40897,3.48034 -0.24978,0.24978 -1.02091,0.37176 -2.82195,0.44639 -2.21564,0.0918 -2.57816,0.0507 -3.42114,-0.38849 z"
         id="path7879"
         transform="scale(0.26458333)" />
      <path
         style="opacity:1;fill:#ffcc00;fill-opacity:1;stroke:none;stroke-width:1.71819;stroke-linejoin:round;stroke-miterlimit:4;stroke-dasharray:none;stroke-opacity:1"
         d="m 82.624558,880.52121 c -2.052378,-0.16472 -3.200004,-0.40344 -5.341615,-1.1111 -1.500199,-0.49572 -3.102229,-1.12776 -3.560067,-1.40453 -2.996482,-1.81144 -4.054576,-2.51039 -4.054576,-2.67834 0,-0.10518 -0.580109,-0.78396 -1.289132,-1.50839 -1.22783,-1.25452 -1.480736,-1.69628 -3.356676,-5.86321 -0.168846,-0.37505 -0.416617,-0.93763 -0.550603,-1.25017 -0.540091,-1.25984 -1.41506,-9.47131 -1.139766,-10.69655 0.110322,-0.49101 0.191879,-1.94189 0.181237,-3.22417 -0.01064,-1.28228 0.03797,-3.86572 0.108022,-5.74097 0.07005,-1.87525 0.182117,-5.50641 0.24903,-8.06925 0.06691,-2.56283 0.174676,-5.73371 0.239472,-7.04638 0.0648,-1.31268 0.159361,-3.53236 0.210144,-4.93264 0.131241,-3.61884 0.0289,-3.51057 3.259604,-3.44857 1.461309,0.028 2.834867,0.13831 3.052352,0.24504 0.516161,0.2533 1.114773,1.42191 0.949278,1.85318 -0.07125,0.18568 -0.02278,0.53709 0.107719,0.78093 0.160095,0.29914 0.164291,0.69305 0.0129,1.2111 -0.123402,0.42227 -0.273991,2.60892 -0.334643,4.85922 -0.06065,2.25029 -0.160552,5.16545 -0.221998,6.47812 -0.06145,1.31268 -0.176253,4.58584 -0.255125,7.27369 -0.07887,2.68786 -0.16116,5.44959 -0.18286,6.13718 -0.0217,0.68759 -0.172065,2.1482 -0.334142,3.2458 -0.208045,1.40889 -0.224004,2.08081 -0.05428,2.28531 0.132223,0.15932 0.346773,1.05129 0.476778,1.98216 0.38765,2.77569 0.544672,3.34776 1.431593,5.21568 1.160351,2.44379 2.05272,3.57378 4.032877,5.10676 1.586298,1.22806 3.536573,2.21261 5.661373,2.858 1.430709,0.43456 1.962257,0.4848 3.742484,0.3537 3.879345,-0.28569 6.05783,-0.83048 7.871154,-1.96841 0.187525,-0.11768 0.552284,-0.30631 0.810578,-0.4192 2.650345,-1.15827 5.647948,-4.96475 7.05881,-8.96358 0.47765,-1.35378 0.99241,-5.29476 1.11805,-8.55971 0.0601,-1.5627 0.15646,-3.76186 0.21404,-4.88701 0.11138,-2.17617 0.29686,-7.61699 0.48819,-14.32007 0.0642,-2.2503 0.14899,-4.65403 0.18835,-5.34162 0.0394,-0.68759 0.0832,-2.0389 0.0974,-3.00291 0.0222,-1.50227 0.099,-1.8224 0.5373,-2.24023 0.47575,-0.45349 0.65417,-0.47592 2.55716,-0.32155 1.12515,0.0913 2.36524,0.16141 2.75577,0.15585 1.21816,-0.0173 1.34095,0.52463 1.29784,5.72842 -0.0208,2.51209 -0.0938,5.48801 -0.16228,6.61316 -0.23655,3.88831 -0.37206,7.75106 -0.47848,13.63816 -0.12988,7.18543 -0.30813,9.9514 -0.71596,11.10959 -0.17061,0.48453 -0.31021,1.28004 -0.31021,1.76781 0,1.21541 -2.09383,6.64089 -3.4045,8.82162 -1.42289,2.36747 -4.18237,5.10213 -5.600808,5.55041 -0.264799,0.0837 -0.664224,0.35412 -0.887613,0.60097 -0.223388,0.24684 -0.582356,0.4488 -0.797705,0.4488 -0.215351,0 -0.51888,0.15343 -0.674512,0.34095 -0.155632,0.18753 -0.454558,0.34096 -0.664279,0.34096 -0.209723,0 -0.478486,0.093 -0.597252,0.20666 -0.619034,0.59246 -5.076052,1.55932 -7.944231,1.72336 -1.000133,0.0572 -2.125281,0.14264 -2.500331,0.18988 -0.375049,0.0472 -1.8582,-0.009 -3.29589,-0.12391 z"
         id="path7918"
         transform="scale(0.26458333)" />
      <path
         style="opacity:1;fill:#ffcc00;fill-opacity:1;stroke:none;stroke-width:1.71819;stroke-linejoin:round;stroke-miterlimit:4;stroke-dasharray:none;stroke-opacity:1"
         d="m 202.77194,880.39939 c -0.045,-0.045 -0.83463,-0.12114 -1.75465,-0.16911 -2.78446,-0.14518 -4.76206,-0.48212 -6.67342,-1.13701 -2.08398,-0.71404 -5.37759,-2.30922 -6.90938,-3.34639 -1.40227,-0.94948 -4.7689,-4.37798 -5.98728,-6.0973 -0.21726,-0.30659 -0.68435,-0.96657 -1.03798,-1.46664 -1.96627,-2.7805 -3.74876,-8.58756 -4.32557,-14.09205 -0.42603,-4.06552 1.01023,-11.11555 3.11321,-15.28153 0.3923,-0.77714 0.71327,-1.58018 0.71327,-1.78453 0,-0.20436 0.28908,-0.74428 0.64239,-1.19982 0.35331,-0.45555 1.01197,-1.44199 1.46368,-2.19209 1.05455,-1.75117 4.32613,-5.05702 6.36447,-6.43115 1.7823,-1.20152 3.76596,-2.28684 4.21616,-2.30678 0.16428,-0.007 0.88028,-0.27961 1.59112,-0.60519 2.88877,-1.32312 3.9096,-1.57741 7.31595,-1.82239 5.02419,-0.36134 7.65803,-0.0766 11.80795,1.27646 2.44233,0.79631 3.21989,1.18238 5.68257,2.82146 2.74969,1.8301 4.17405,3.07322 5.284,4.61164 0.28821,0.39946 0.86033,1.19069 1.2714,1.75829 0.9789,1.35171 2.86197,5.13876 3.34203,6.72118 0.20859,0.68759 0.67126,2.02077 1.02815,2.96261 1.39208,3.67372 1.49098,10.75881 0.21149,15.15106 -1.51148,5.18866 -2.94514,8.2922 -5.23012,11.32204 -1.80745,2.39665 -5.13547,5.79622 -5.67423,5.79622 -0.11281,0 -0.5546,0.30686 -0.98176,0.68191 -0.42716,0.37505 -0.85884,0.68191 -0.9593,0.68191 -0.10045,0 -0.39381,0.19189 -0.6519,0.42642 -0.25809,0.23453 -1.98355,1.00544 -3.83435,1.71312 -2.64817,1.01258 -3.88304,1.35477 -5.79622,1.60619 -3.08308,0.40518 -4.12877,0.50438 -4.23168,0.40147 z m 3.95993,-8.11649 c 1.33231,-0.26918 5.31971,-1.5444 5.68257,-1.81736 0.18753,-0.14106 0.64109,-0.4055 1.00792,-0.58763 0.83234,-0.41327 4.26413,-3.79197 5.47454,-5.38986 1.73072,-2.28477 2.9159,-5.02433 3.75268,-8.67434 0.17206,-0.75049 0.2822,-2.92537 0.28203,-5.56892 -2.7e-4,-4.37126 -0.0776,-4.95745 -1.03714,-7.86071 -0.18593,-0.56258 -0.39737,-1.28428 -0.46988,-1.60379 -0.40062,-1.7653 -2.12603,-4.4787 -4.00949,-6.30534 -2.39484,-2.3226 -6.34267,-4.40065 -9.30355,-4.89719 -1.79691,-0.30134 -6.54885,-0.27406 -7.97146,0.0458 -2.07719,0.46698 -3.06774,0.74508 -3.79776,1.06623 -0.41156,0.18105 -1.13187,0.49747 -1.60068,0.70316 -1.38739,0.60869 -3.95936,2.77025 -6.14945,5.16816 -1.18839,1.30116 -3.10164,5.12725 -3.4548,6.90885 -0.14183,0.71546 -0.41384,1.93358 -0.60449,2.70693 -0.60101,2.43806 -0.4871,9.54065 0.19466,12.13724 0.55362,2.10854 2.61999,6.35741 3.50513,7.20724 0.29824,0.28635 0.54225,0.61116 0.54225,0.72179 0,0.11064 0.79272,0.88223 1.7616,1.71463 1.99872,1.71719 5.52831,3.58386 7.54145,3.98839 0.69659,0.13998 1.62453,0.33665 2.06209,0.43704 0.90953,0.20869 5.40069,0.14036 6.59178,-0.10028 z"
         id="path7957"
         transform="scale(0.26458333)" />
      <path
         style="opacity:1;fill:#ff2a2a;fill-opacity:1;stroke:none;stroke-width:1.71819;stroke-linejoin:round;stroke-miterlimit:4;stroke-dasharray:none;stroke-opacity:1"
         d="m 77.223629,818.88672 c -0.305335,-0.67013 -1.934641,-0.99323 -2.866826,-0.5685 -0.528559,0.24083 -0.670229,0.20956 -1.167558,-0.25765 -0.737137,-0.69251 -0.712502,-0.92626 0.155483,-1.47536 0.39524,-0.25003 1.040325,-0.65918 1.433523,-0.90921 0.591118,-0.37589 1.90586,-1.42723 4.199531,-3.35817 0.679493,-0.57204 3.898013,-2.64232 4.312186,-2.77377 0.236528,-0.0751 0.554098,-0.28596 0.705712,-0.46864 0.151614,-0.18269 0.435545,-0.33215 0.630959,-0.33215 0.195414,0 0.566463,-0.19183 0.824554,-0.42629 0.25809,-0.23445 1.389831,-0.91413 2.51498,-1.51039 1.125149,-0.59626 2.199154,-1.21429 2.386679,-1.37341 0.187525,-0.15912 1.261531,-0.71397 2.386679,-1.23299 1.125149,-0.51903 2.812872,-1.30817 3.750496,-1.75365 0.937624,-0.44547 1.909343,-0.88744 2.159376,-0.98214 0.250033,-0.0947 1.221753,-0.48712 2.159377,-0.87203 0.93762,-0.38492 1.98186,-0.7642 2.32053,-0.84284 0.33867,-0.0786 0.73252,-0.28367 0.87522,-0.45562 0.14271,-0.17195 0.63277,-0.38247 1.08902,-0.46782 0.45625,-0.0854 1.45037,-0.43349 2.20916,-0.77366 0.75879,-0.34016 2.08852,-0.7906 2.95494,-1.00097 0.86642,-0.21037 1.88217,-0.47334 2.25722,-0.58439 2.64352,-0.78273 4.12408,-1.18496 5.90987,-1.60554 1.12515,-0.26499 2.50602,-0.61565 3.06859,-0.77925 0.56258,-0.1636 1.68361,-0.37093 2.49119,-0.46073 0.80758,-0.0898 1.62587,-0.2427 1.81842,-0.33977 0.6025,-0.30374 3.8485,-0.94646 4.07453,-0.80677 0.11837,0.0732 0.46434,0.0383 0.76882,-0.0775 1.59882,-0.60787 11.0016,-1.39684 18.00972,-1.51117 4.58627,-0.0748 14.51242,0.48273 16.82041,0.9448 0.37505,0.0751 1.34677,0.21731 2.15937,0.31604 1.90089,0.23097 4.02161,0.61143 6.02353,1.08063 0.87511,0.20511 1.79569,0.35581 2.04572,0.3349 0.25004,-0.0209 1.34043,0.26641 2.42311,0.63851 1.08267,0.3721 2.22035,0.67655 2.52818,0.67655 0.30783,0 1.82573,0.45279 3.37312,1.00621 1.54738,0.55342 3.27372,1.12668 3.83629,1.2739 2.37855,0.62249 10.30134,4.31059 11.89474,5.53707 0.60382,0.46478 2.09628,1.4379 3.31658,2.16249 3.44006,2.04264 6.04823,4.13557 10.08758,8.09477 3.26812,3.20328 5.34757,5.64028 5.37892,6.30378 0.0152,0.32301 -1.47141,0.15958 -2.40499,-0.26437 -0.51457,-0.23368 -1.28171,-0.49149 -1.70477,-0.57292 -2.94057,-0.56599 -3.66826,-0.89972 -5.41453,-2.48316 -0.94553,-0.85737 -1.92691,-1.78321 -2.18085,-2.05742 -0.25394,-0.27422 -0.96995,-0.84294 -1.59112,-1.26384 -0.62118,-0.42089 -1.55139,-1.14757 -2.06714,-1.61483 -0.51575,-0.46727 -1.7381,-1.28884 -2.71634,-1.82573 -0.97824,-0.53689 -1.94879,-1.14633 -2.15677,-1.35431 -1.19307,-1.19308 -8.61337,-4.72985 -11.91878,-5.68091 -1.37518,-0.39567 -3.23692,-1.01188 -4.13721,-1.36935 -0.90028,-0.35746 -2.23,-0.74884 -2.95494,-0.86973 -0.72493,-0.12089 -2.0577,-0.48193 -2.96173,-0.8023 -0.90402,-0.32038 -1.97802,-0.58372 -2.38667,-0.58521 -0.40866,-10e-4 -1.30558,-0.1537 -1.99317,-0.33825 -0.68759,-0.18456 -1.58932,-0.33678 -2.00384,-0.33826 -0.41453,-0.001 -0.95921,-0.11269 -1.21041,-0.24713 -0.58683,-0.31406 -6.19558,-0.95864 -10.99218,-1.26327 -4.17878,-0.26538 -14.51173,-0.15171 -18.07057,0.19879 -1.93775,0.19085 -3.7789,0.34598 -4.09145,0.34473 -0.64329,-0.003 -6.28707,0.89714 -7.50099,1.19578 -0.43756,0.10764 -1.46042,0.30774 -2.27303,0.44466 -4.15595,0.70024 -9.34442,2.01166 -12.6153,3.18859 -1.00013,0.35987 -3.2368,1.12609 -4.97037,1.70271 -3.06828,1.02056 -5.90196,2.12158 -8.21319,3.19121 -0.625083,0.28929 -1.750231,0.79939 -2.500331,1.13357 -1.904783,0.84861 -6.30435,3.06275 -6.657916,3.35068 -0.161391,0.13143 -0.775109,0.47893 -1.363817,0.77223 -0.588707,0.2933 -1.530666,0.83678 -2.09324,1.20774 -0.562574,0.37096 -1.341856,0.85656 -1.731737,1.07911 -1.053897,0.60161 -4.921841,3.17372 -5.314649,3.53415 -0.504789,0.46319 -2.495091,1.75752 -2.702543,1.75752 -0.09868,0 -0.290093,-0.2429 -0.425358,-0.53978 z"
         id="path7996"
         transform="scale(0.26458333)" />
      <path
         style="opacity:1;fill:#ff2a2a;fill-opacity:1;stroke:none;stroke-width:1.71819;stroke-linejoin:round;stroke-miterlimit:4;stroke-dasharray:none;stroke-opacity:1"
         d="m 119.33396,915.10453 c -5.8678,-0.14685 -8.84601,-0.39847 -10.5705,-0.89304 -0.4354,-0.12487 -1.25261,-0.22825 -1.81601,-0.22974 -0.56339,-0.002 -1.58693,-0.1537 -2.27452,-0.33826 -0.68759,-0.18455 -1.58331,-0.33677 -1.99049,-0.33825 -0.40718,-0.002 -2.19719,-0.36761 -3.977802,-0.81361 -1.78061,-0.44601 -3.851191,-0.94738 -4.60129,-1.11417 -0.750099,-0.16679 -2.437822,-0.70894 -3.750496,-1.20477 -1.312673,-0.49583 -3.102683,-1.13332 -3.977798,-1.41665 -3.694084,-1.19601 -11.11967,-4.71855 -11.933396,-5.66095 -0.187525,-0.21718 -1.108101,-0.83742 -2.045725,-1.3783 -1.679792,-0.96901 -5.193373,-3.51357 -7.358262,-5.3289 -1.508881,-1.26524 -5.597996,-5.36502 -5.597996,-5.6126 0,-0.11008 -0.696388,-0.99351 -1.547529,-1.96318 -0.851141,-0.96967 -1.776835,-2.24062 -2.057098,-2.82433 -0.280262,-0.58372 -0.654627,-1.18169 -0.831921,-1.32883 -0.614655,-0.51012 -3.976326,-7.67797 -4.404512,-9.39143 -0.233595,-0.93478 -0.478684,-1.78691 -0.544641,-1.89363 -0.06596,-0.10672 -0.291088,-1.01148 -0.500292,-2.01059 -0.209204,-0.9991 -0.429014,-2.02112 -0.488466,-2.27115 -0.647227,-2.72198 -0.767774,-10.80221 -0.201328,-13.495 0.190939,-0.90769 0.347162,-1.95012 0.347162,-2.3165 0,-0.36638 0.202931,-1.25469 0.450958,-1.97404 0.248026,-0.71934 0.659189,-2.12486 0.913696,-3.12338 0.899341,-3.52845 5.572843,-12.8714 6.825862,-13.64581 0.290962,-0.17982 0.283342,-0.14999 -0.215268,0.8426 -0.375774,0.74806 -0.190133,1.32149 0.427821,1.32149 0.253957,0 0.463279,-0.0256 0.465162,-0.0568 0.0019,-0.0312 0.147553,-0.46597 0.323713,-0.96604 0.293894,-0.83427 0.31245,-0.60555 0.225147,2.77512 -0.08728,3.37963 -0.144497,3.79318 -0.691915,5.00066 -1.737744,3.83305 -2.389691,5.52144 -2.694972,6.97934 -0.185499,0.88588 -0.450182,1.96869 -0.588182,2.40624 -0.349021,1.10664 -0.617002,3.11493 -1.016078,7.61465 -0.329622,3.71659 -0.325448,3.93792 0.109293,5.79622 0.2486,1.06264 0.564158,2.75036 0.701238,3.75049 0.28664,2.09132 0.832198,3.78942 2.044749,6.36448 0.470946,1.00013 1.207921,2.58557 1.637724,3.52319 0.429802,0.93763 1.28511,2.31849 1.900682,3.06859 0.615573,0.7501 1.52714,1.97747 2.025706,2.72749 1.319441,1.98491 6.45548,6.95866 8.748428,8.47199 1.06264,0.70134 2.083734,1.42559 2.2691,1.60946 0.185363,0.18386 0.901367,0.68764 1.591119,1.11952 0.68975,0.43188 1.612095,1.01352 2.049653,1.29254 1.695649,1.08129 6.289968,3.49992 7.046386,3.70951 0.437558,0.12123 2.596379,0.9455 4.797382,1.83172 2.201002,0.88621 4.502442,1.73 5.114312,1.87509 0.61187,0.14509 2.08421,0.56804 3.271867,0.93989 3.034521,0.9501 3.253657,1.00351 5.796217,1.41287 1.25017,0.20128 2.78446,0.4765 3.40954,0.61161 1.06828,0.2309 1.92222,0.34326 6.70544,0.88228 3.24597,0.36578 13.40867,0.68627 14.88777,0.4695 0.75041,-0.10998 2.48952,-0.20684 3.86471,-0.21524 1.37518,-0.008 3.31862,-0.12561 4.31875,-0.26048 1.00013,-0.13488 2.68785,-0.33106 3.75049,-0.43597 2.71096,-0.26763 5.3897,-0.69982 6.59178,-1.06352 0.56258,-0.17021 1.84116,-0.41875 2.84129,-0.55231 1.00013,-0.13356 2.381,-0.38414 3.06859,-0.55686 0.68759,-0.1727 2.32417,-0.58474 3.63684,-0.91562 1.31267,-0.33089 3.30726,-0.89306 4.4324,-1.24928 1.12515,-0.35622 3.06859,-0.96609 4.31876,-1.35528 2.3396,-0.72834 2.94529,-0.95307 4.05304,-1.5038 0.35393,-0.17597 0.76702,-0.31993 0.91798,-0.31993 0.15096,0 0.67401,-0.2037 1.16233,-0.45266 0.48832,-0.24896 1.60953,-0.67448 2.49157,-0.94559 0.88204,-0.27111 1.80827,-0.67075 2.05831,-0.88809 0.25003,-0.21735 1.33581,-0.75735 2.41285,-1.2 1.07703,-0.44266 2.40676,-1.06918 2.95493,-1.39226 0.54818,-0.32309 1.76384,-0.96124 2.70147,-1.41812 0.93762,-0.45689 1.96048,-1.00326 2.27302,-1.21417 2.0192,-1.3626 3.30614,-2.19048 3.82999,-2.46379 0.33133,-0.17288 0.76065,-0.45122 0.95404,-0.61855 0.1934,-0.16732 0.85826,-0.57146 1.47747,-0.89807 0.61922,-0.32662 1.38156,-0.8265 1.6941,-1.11085 1.02987,-0.93698 3.51151,-2.7446 4.15897,-3.02939 0.69865,-0.30731 1.91729,-0.35129 3.7229,-0.13437 1.08012,0.12976 1.16188,0.18078 0.99867,0.62311 -0.22258,0.60325 -0.0762,1.05002 0.34416,1.05002 0.17711,0 0.32202,0.0936 0.32202,0.20809 0,0.21272 -2.38489,2.34207 -3.40954,3.04421 -1.15612,0.79222 -2.18345,1.52346 -3.06859,2.18417 -0.50007,0.37328 -1.77865,1.25974 -2.84129,1.96991 -1.06264,0.71018 -2.20922,1.48228 -2.54795,1.71579 -0.33873,0.2335 -0.68094,0.42455 -0.76047,0.42455 -0.0795,0 -0.46724,0.23015 -0.86159,0.51143 -0.39435,0.28129 -1.194,0.73277 -1.777,1.00329 -0.583,0.27052 -1.63342,0.85866 -2.33426,1.30699 -0.70085,0.44832 -1.32315,0.81514 -1.3829,0.81514 -0.23404,0 -3.19812,1.44521 -3.51939,1.71596 -0.29207,0.24615 -2.37349,1.19551 -4.31875,1.96984 -0.31254,0.12441 -0.87512,0.35599 -1.25017,0.51461 -0.37504,0.15863 -1.09105,0.44662 -1.59111,0.63997 -0.50007,0.19336 -1.90975,0.76881 -3.13262,1.27878 -1.22288,0.50997 -2.34847,0.92722 -2.50132,0.92722 -0.24375,0 -1.39524,0.4047 -4.25374,1.49502 -0.43755,0.1669 -0.97645,0.30794 -1.19754,0.31343 -0.22109,0.005 -1.49967,0.35326 -2.84128,0.77282 -1.34162,0.41957 -2.95074,0.8757 -3.57582,1.01363 -0.62508,0.13794 -1.83975,0.42012 -2.69927,0.62708 -0.85952,0.20697 -1.98467,0.32485 -2.50033,0.26196 -0.51567,-0.0629 -0.79528,-0.0613 -0.62136,0.004 0.45215,0.16853 -1.18967,0.6925 -2.69372,0.85967 -0.69264,0.077 -2.23106,0.33119 -3.41871,0.56491 -2.90409,0.57148 -9.84216,1.31598 -13.75182,1.47566 -1.75023,0.0715 -3.54024,0.15707 -3.9778,0.19021 -0.43756,0.0331 -3.55729,-0.009 -6.93273,-0.0934 z"
         id="path8035"
         transform="scale(0.26458333)" />
    </g>
  </g>
</svg>
